# xmcd
#
# Track frame offsets: 
#        150
#        19899
#        40777
#        58512
#        75669
#        94316
#        109771
#        130708
#        152176
#        167268
#        182830
#
# Disc length: 2670 seconds
#
# Revision: 2
# Processed by: cddbd v1.5.2PL0 Copyright (c) Steve Scherf et al.
# Submitted via: ExactAudioCopy v1.0b3
#
DISCID=820a6c0b
DTITLE=Tedeschi, Susan - Back To The River
DYEAR=2008
DGENRE=Blues
TTITLE0=Talking About
TTITLE1=700 Houses
TTITLE2=Back To The River
TTITLE3=Love Will
TTITLE4=Butterfly
TTITLE5=People
TTITLE6=Learning The Hard Way
TTITLE7=Revolutionize Your Soul
TTITLE8=True
TTITLE9=There's A Break In The Road
TTITLE10=Can't Sleep At Night
EXTD=YEAR: 2008
EXTT0=
EXTT1=
EXTT2=
EXTT3=
EXTT4=
EXTT5=
EXTT6=
EXTT7=
EXTT8=
EXTT9=
EXTT10=
PLAYORDER=
